<svg width="39" height="38" viewBox="0 0 39 38" fill="none" xmlns="http://www.w3.org/2000/svg">
<g id="Group">
<path id="Vector" d="M2 2H5.00417L6.29167 7.59777M6.29167 7.59777L10.5833 26.257H32.9L37.1917 7.59777H6.29167Z" stroke="#368C2D" stroke-width="3" stroke-linecap="round" stroke-linejoin="round"/>
<path id="Vector_2" d="M10.5833 35.5866C12.0054 35.5866 13.1583 34.3335 13.1583 32.7877C13.1583 31.2419 12.0054 29.9888 10.5833 29.9888C9.16117 29.9888 8.0083 31.2419 8.0083 32.7877C8.0083 34.3335 9.16117 35.5866 10.5833 35.5866Z" stroke="#368C2D" stroke-width="3" stroke-linecap="round" stroke-linejoin="round"/>
<path id="Vector_3" d="M32.9002 35.5866C34.3223 35.5866 35.4752 34.3335 35.4752 32.7877C35.4752 31.2419 34.3223 29.9888 32.9002 29.9888C31.4781 29.9888 30.3252 31.2419 30.3252 32.7877C30.3252 34.3335 31.4781 35.5866 32.9002 35.5866Z" stroke="#368C2D" stroke-width="3" stroke-linecap="round" stroke-linejoin="round"/>
</g>
</svg>
