<svg width="45" height="45" viewBox="0 0 45 45" fill="none" xmlns="http://www.w3.org/2000/svg">
<g id="ion:search-outline" opacity="0.4">
<path id="Vector" d="M19.4317 5.625C16.701 5.625 14.0316 6.43475 11.7611 7.95186C9.49063 9.46896 7.72098 11.6253 6.67598 14.1481C5.63098 16.671 5.35756 19.4471 5.8903 22.1253C6.42303 24.8035 7.738 27.2637 9.66891 29.1946C11.5998 31.1255 14.0599 32.4405 16.7382 32.9732C19.4164 33.5059 22.1925 33.2325 24.7154 32.1875C27.2382 31.1425 29.3945 29.3729 30.9116 27.1024C32.4287 24.8318 33.2385 22.1625 33.2385 19.4317C33.2383 15.77 31.7835 12.2584 29.1943 9.66916C26.6051 7.07994 23.0934 5.62523 19.4317 5.625Z" stroke="#B79A1D" stroke-width="4" stroke-miterlimit="10"/>
<path id="Vector_2" d="M29.7324 29.7324L39.3749 39.3749" stroke="#B79A1D" stroke-width="6" stroke-miterlimit="10" stroke-linecap="round"/>
</g>
</svg>
